<svg width="598" height="401" viewBox="0 0 598 401" fill="none" xmlns="http://www.w3.org/2000/svg">
<g clip-path="url(#clip0_4_582)">
<path d="M543.954 175.135C555.025 183.918 536.909 261.015 536.909 261.015C536.909 261.015 532.883 378.613 524.328 383.981C515.773 389.348 496.65 383.493 489.102 382.517C481.554 381.541 488.096 308.835 499.167 281.998C510.238 255.16 501.683 216.123 501.683 216.123L441.799 227.346C441.799 227.346 478.031 257.112 476.521 263.455C475.012 269.799 436.263 291.269 429.218 292.245C422.173 293.221 408.586 253.208 396.508 225.883C384.431 198.557 479.037 180.991 479.037 180.991L492.121 157.081C492.121 157.081 532.883 166.352 543.954 175.135Z" fill="#2F2E41"/>
<path d="M513.899 386.005C513.899 386.005 517.55 398.399 513.899 398.399C510.247 398.399 503.552 401.939 493.206 400.759C482.859 399.579 485.902 387.186 493.206 385.415C500.509 383.645 498.683 369.481 498.683 369.481C501.118 364.76 512.681 370.662 512.681 370.662L513.899 386.005Z" fill="#2F2E41"/>
<path d="M462.055 287.455C462.055 287.455 468.32 298.822 464.75 299.569C461.181 300.316 455.407 305.146 445.036 306.108C434.666 307.07 434.945 294.333 441.699 291.109C448.453 287.885 443.588 274.413 443.588 274.413C444.941 269.301 457.528 272.705 457.528 272.705L462.055 287.455Z" fill="#2F2E41"/>
<path d="M537.16 69.4924C536.154 71.4442 540.683 95.8421 540.683 95.8421L536.657 102.673C536.657 102.673 513.509 93.8903 517.031 92.4264C520.554 90.9625 520.051 72.9081 520.051 72.9081C520.051 72.9081 538.167 67.5406 537.16 69.4924Z" fill="#FFB9B9"/>
<path d="M528.448 77.013C511.407 77.013 497.593 63.618 497.593 47.0945C497.593 30.571 511.407 17.1761 528.448 17.1761C545.488 17.1761 559.302 30.571 559.302 47.0945C559.302 63.618 545.488 77.013 528.448 77.013Z" fill="#2F2E41"/>
<path d="M530.575 31.466C523.524 31.466 517.808 25.9232 517.808 19.0859C517.808 12.2486 523.524 6.70587 530.575 6.70587C537.627 6.70587 543.343 12.2486 543.343 19.0859C543.343 25.9232 537.627 31.466 530.575 31.466Z" fill="#2F2E41"/>
<path d="M524.99 24.6932C524.548 24.7377 524.104 24.76 523.66 24.7601C521.983 24.7601 520.323 24.4399 518.774 23.8178C517.225 23.1956 515.817 22.2837 514.632 21.1341C513.446 19.9845 512.506 18.6197 511.864 17.1177C511.222 15.6157 510.892 14.0058 510.892 12.3801C510.892 10.7543 511.222 9.14444 511.864 7.64242C512.506 6.1404 513.446 4.77564 514.632 3.62604C515.817 2.47644 517.225 1.56453 518.774 0.942376C520.323 0.32022 521.983 -4.84518e-08 523.66 0C524.104 0.000110775 524.548 0.0224511 524.99 0.066934C521.851 0.385812 518.945 1.82056 516.833 4.09437C514.721 6.36818 513.552 9.31991 513.552 12.3801C513.552 15.4402 514.721 18.392 516.833 20.6658C518.945 22.9396 521.851 24.3743 524.99 24.6932Z" fill="#2F2E41"/>
<path d="M527.599 82.1793C515.926 82.1793 506.463 73.0038 506.463 61.6851C506.463 50.3665 515.926 41.1909 527.599 41.1909C539.272 41.1909 548.734 50.3665 548.734 61.6851C548.734 73.0038 539.272 82.1793 527.599 82.1793Z" fill="#FFB9B9"/>
<path d="M558.044 93.1583C564.586 94.6222 575.657 110.237 575.657 110.237L558.044 127.315C558.044 127.315 545.463 173.183 543.954 175.135C534.063 187.922 489.605 159.52 489.605 159.52C489.605 159.52 491.367 145.614 490.36 138.782C489.392 132.212 494.134 119.02 494.134 119.02C494.134 119.02 477.528 112.189 481.05 105.357C484.573 98.5259 506.212 82.9113 515.27 88.2788C524.328 93.6463 542.444 88.2788 542.444 88.2788C542.444 88.2788 551.502 91.6945 558.044 93.1583Z" fill="#E6E6E6"/>
<path d="M429.47 191.482C429.47 191.482 400.786 215.392 393.741 210.512C386.695 205.632 420.915 188.554 420.915 188.554L429.47 191.482Z" fill="#FFB9B9"/>
<path d="M558.296 183.186C554.27 187.578 535.147 176.355 537.599 171.371C540.051 166.387 555.276 176.355 555.276 176.355C555.276 176.355 562.322 178.795 558.296 183.186Z" fill="#FFB9B9"/>
<path d="M558.044 117.068L579.18 155.129C579.18 155.129 555.025 174.647 552.005 175.135C548.986 175.623 558.044 188.31 558.044 188.31C558.044 188.31 585.218 169.768 595.786 160.496C606.354 151.225 575.657 110.237 575.657 110.237L566.599 104.869L558.044 117.068Z" fill="#E6E6E6"/>
<path d="M496.65 115.604L471.992 152.689C471.992 152.689 434.25 193.677 429.218 195.629C424.186 197.581 418.147 188.31 418.147 188.31L463.437 135.123L480.547 105.357L487.089 102.917L496.65 115.604Z" fill="#E6E6E6"/>
<path d="M528.447 49.7154C516.695 49.7154 507.168 44.1726 507.168 37.3353C507.168 30.498 516.695 24.9553 528.447 24.9553C540.2 24.9553 549.727 30.498 549.727 37.3353C549.727 44.1726 540.2 49.7154 528.447 49.7154Z" fill="#2F2E41"/>
<path d="M468.752 304.449C469.45 304.45 470.118 304.719 470.611 305.197C471.105 305.675 471.382 306.324 471.383 307V393.997C471.382 394.673 471.105 395.321 470.611 395.799C470.118 396.278 469.45 396.547 468.752 396.547H162.825C162.128 396.546 161.459 396.277 160.966 395.799C160.473 395.321 160.196 394.673 160.195 393.997V307C160.196 306.324 160.473 305.675 160.966 305.197C161.459 304.719 162.128 304.45 162.825 304.449L468.752 304.449Z" fill="#E6E6E6"/>
<path d="M464.791 390.155H166.787V310.841H464.791V390.155Z" fill="white"/>
<path d="M204.402 373.701C204.975 373.701 205.542 373.809 206.071 374.021C206.601 374.233 207.082 374.545 207.487 374.937C207.892 375.329 208.213 375.795 208.433 376.308C208.652 376.821 208.765 377.371 208.765 377.926C208.765 378.482 208.652 379.032 208.433 379.544C208.213 380.057 207.892 380.523 207.487 380.916C207.082 381.308 206.601 381.619 206.071 381.831C205.542 382.043 204.975 382.152 204.402 382.152H186.973C185.817 382.152 184.709 381.706 183.892 380.914C183.075 380.122 182.615 379.047 182.615 377.926C182.615 376.806 183.075 375.731 183.892 374.939C184.709 374.146 185.817 373.701 186.973 373.701H204.402Z" fill="#662D91"/>
<path d="M182.615 365.506H383.818V366.617H182.615V365.506Z" fill="#E6E6E6"/>
<path d="M425.876 375.108C411.859 375.108 400.496 364.09 400.496 350.498C400.496 336.907 411.859 325.889 425.876 325.889C439.893 325.889 451.255 336.907 451.255 350.498C451.255 364.09 439.893 375.108 425.876 375.108Z" fill="#662D91"/>
<path d="M426.385 367.351L416.111 353.321L426.385 359.203L436.653 353.321L426.386 367.351H426.385Z" fill="white"/>
<path d="M426.386 357.318H426.385L416.117 351.433L426.385 334.913H426.386L436.653 351.433L426.386 357.318Z" fill="white"/>
<path d="M383.5 359.298L384.136 358.373L363.228 344.857L348.891 351.531L328.269 338.755L287.246 355.723L254.578 340.163L222.856 352.633L182.996 318.4L182.235 319.232L222.627 353.923L254.533 341.38L287.213 356.946L328.162 340.008L348.811 352.801L363.136 346.134L383.5 359.298Z" fill="#3F3D56"/>
<path d="M380.092 374.282C380.582 374.282 381.067 374.375 381.52 374.556C381.972 374.737 382.384 375.003 382.73 375.339C383.076 375.675 383.351 376.073 383.539 376.512C383.726 376.95 383.823 377.421 383.823 377.895C383.823 378.37 383.726 378.84 383.539 379.279C383.351 379.718 383.076 380.116 382.73 380.452C382.384 380.787 381.972 381.053 381.52 381.235C381.067 381.416 380.582 381.509 380.092 381.508H341.113C340.125 381.507 339.179 381.126 338.481 380.448C337.784 379.771 337.392 378.853 337.392 377.895C337.392 376.938 337.784 376.02 338.481 375.342C339.179 374.665 340.125 374.284 341.113 374.282H380.092Z" fill="#E6E6E6"/>
<path d="M428.915 25.7902C429.613 25.791 430.281 26.06 430.775 26.5382C431.268 27.0164 431.545 27.6647 431.546 28.3409V115.338C431.545 116.014 431.268 116.662 430.775 117.141C430.281 117.619 429.613 117.888 428.915 117.888H122.988C122.291 117.888 121.622 117.619 121.129 117.14C120.636 116.662 120.359 116.014 120.358 115.338V28.3409C120.359 27.6647 120.636 27.0164 121.129 26.5382C121.622 26.06 122.291 25.791 122.988 25.7902L428.915 25.7902Z" fill="#E6E6E6"/>
<path d="M424.954 111.496H126.95V32.1823H424.954V111.496Z" fill="white"/>
<path d="M164.565 95.0424C165.721 95.0424 166.829 95.4875 167.647 96.2799C168.464 97.0723 168.923 98.147 168.923 99.2676C168.923 100.388 168.464 101.463 167.647 102.255C166.829 103.048 165.721 103.493 164.565 103.493H147.136C145.98 103.493 144.872 103.048 144.055 102.255C143.238 101.463 142.779 100.388 142.779 99.2676C142.779 98.147 143.238 97.0723 144.055 96.2799C144.872 95.4875 145.98 95.0424 147.136 95.0424H164.565Z" fill="#662D91"/>
<path d="M142.779 86.8469H343.981V87.9585H142.779V86.8469Z" fill="#E6E6E6"/>
<path d="M386.039 96.4487C372.022 96.4487 360.66 85.4307 360.66 71.8394C360.66 58.248 372.022 47.23 386.039 47.23C400.056 47.23 411.418 58.248 411.418 71.8394C411.418 85.4307 400.056 96.4487 386.039 96.4487Z" fill="#662D91"/>
<path d="M385.895 88.3563L375.621 74.3262L385.895 80.2083L396.163 74.3262L385.895 88.3563H385.895Z" fill="white"/>
<path d="M385.895 78.3232H385.895L375.627 72.4381L385.895 55.9179H385.895L396.163 72.4381L385.895 78.3232Z" fill="white"/>
<path d="M343.663 80.639L344.299 79.714L323.391 66.1985L309.054 72.8718L288.432 60.0963L288.153 60.2111L247.409 77.0644L214.741 61.5038L183.019 73.9741L143.159 39.7404L142.399 40.5726L182.791 75.2632L214.696 62.7209L247.375 78.2869L288.325 61.3491L308.974 74.1418L323.299 67.4745L343.663 80.639Z" fill="#3F3D56"/>
<path d="M340.255 95.6236C341.243 95.6248 342.189 96.006 342.887 96.6835C343.585 97.3609 343.977 98.2791 343.977 99.2365C343.977 100.194 343.585 101.112 342.887 101.79C342.189 102.467 341.243 102.848 340.255 102.849H301.276C300.288 102.849 299.34 102.469 298.641 101.791C297.942 101.114 297.55 100.195 297.55 99.2365C297.55 98.2783 297.942 97.3594 298.641 96.6818C299.34 96.0043 300.288 95.6236 301.276 95.6236H340.255Z" fill="#E6E6E6"/>
<path d="M308.557 165.12C309.255 165.12 309.923 165.389 310.417 165.868C310.91 166.346 311.187 166.994 311.188 167.67V254.667C311.187 255.343 310.91 255.992 310.417 256.47C309.923 256.948 309.255 257.217 308.557 257.218H2.63045C1.93305 257.217 1.26448 256.948 0.771344 256.47C0.278209 255.992 0.000814532 255.343 -8.63103e-06 254.667V167.67C0.000799935 166.994 0.278207 166.346 0.771344 165.868C1.26448 165.389 1.93305 165.12 2.63045 165.12L308.557 165.12Z" fill="#E6E6E6"/>
<path d="M304.596 250.826H6.5922V171.512H304.596V250.826Z" fill="white"/>
<path d="M44.2075 234.372C45.3632 234.372 46.4715 234.817 47.2887 235.609C48.1059 236.402 48.5649 237.476 48.5649 238.597C48.5649 239.718 48.1059 240.792 47.2887 241.585C46.4715 242.377 45.3632 242.822 44.2075 242.822H26.7781C25.6224 242.822 24.5141 242.377 23.697 241.585C22.8798 240.792 22.4207 239.718 22.4207 238.597C22.4207 237.476 22.8798 236.402 23.697 235.609C24.5141 234.817 25.6224 234.372 26.7781 234.372H44.2075Z" fill="#662D91"/>
<path d="M22.4207 226.176H223.623V227.288H22.4207V226.176Z" fill="#E6E6E6"/>
<path d="M265.681 235.778C251.664 235.778 240.302 224.76 240.302 211.169C240.302 197.577 251.664 186.559 265.681 186.559C279.698 186.559 291.061 197.577 291.061 211.169C291.061 224.76 279.698 235.778 265.681 235.778Z" fill="#662D91"/>
<path d="M223.305 219.969L223.941 219.044L203.034 205.528L188.696 212.201L168.074 199.426L167.795 199.541L127.051 216.394L94.3827 200.833L62.6605 213.303L22.8004 179.07L22.0403 179.903L62.4323 214.593L94.3379 202.051L127.018 217.617L167.966 200.679L188.617 213.471L202.941 206.805L223.305 219.969Z" fill="#3F3D56"/>
<path d="M219.897 234.953C220.886 234.953 221.833 235.334 222.532 236.011C223.231 236.689 223.623 237.608 223.623 238.566C223.623 239.524 223.231 240.443 222.532 241.121C221.833 241.798 220.886 242.179 219.897 242.179H180.918C179.93 242.179 178.982 241.798 178.283 241.121C177.584 240.443 177.192 239.524 177.192 238.566C177.192 237.608 177.584 236.689 178.283 236.011C178.982 235.334 179.93 234.953 180.918 234.953H219.897Z" fill="#E6E6E6"/>
<path d="M265.684 227.388L255.41 213.358L265.684 219.24L275.952 213.358L265.684 227.388H265.684Z" fill="white"/>
<path d="M265.684 217.355H265.684L255.416 211.47L265.684 194.95H265.684L275.952 211.47L265.684 217.355Z" fill="white"/>
</g>
<defs>
<clipPath id="clip0_4_582">
<rect width="598" height="401" fill="white" transform="matrix(-1 0 0 1 598 0)"/>
</clipPath>
</defs>
</svg>
