<svg width="1613" height="871" viewBox="0 0 1613 871" fill="none" xmlns="http://www.w3.org/2000/svg">
<path opacity="0.0144928" d="M1515.26 1175.17C1524.8 1178.92 1535.67 1175.9 1541.92 1167.77L1698.99 963.22C1702.68 958.413 1704.32 952.341 1703.56 946.327L1656.7 575.636C1656.1 570.906 1654.05 566.479 1650.82 562.967L1430.47 322.918C1424.63 316.551 1415.71 313.998 1407.38 316.31L1191.64 376.201C1183.31 378.513 1176.98 385.299 1175.25 393.769L1110.17 713.054C1109.22 717.725 1109.75 722.577 1111.67 726.938L1262.6 1068.74C1265.05 1074.29 1269.59 1078.64 1275.23 1080.86L1515.26 1175.17Z" stroke="url(#paint0_linear_53_66)" stroke-width="4"/>
<path opacity="0.0289855" d="M1474.1 1178.51C1483.42 1182.73 1494.4 1180.29 1501.05 1172.53L1667.7 978.177C1671.65 973.568 1673.62 967.584 1673.18 961.53L1646.21 592.344C1645.86 587.575 1644.04 583.034 1640.99 579.351L1434.98 330.57C1429.47 323.921 1420.7 320.915 1412.28 322.785L1195.02 371.009C1186.6 372.88 1179.92 379.312 1177.75 387.666L1096.34 700.244C1095.14 704.872 1095.4 709.759 1097.11 714.228L1228.87 1060.15C1231.03 1065.83 1235.35 1070.41 1240.88 1072.92L1474.1 1178.51Z" stroke="url(#paint1_linear_53_66)" stroke-width="4"/>
<path opacity="0.0434783" d="M1433.13 1180.58C1442.19 1185.25 1453.25 1183.39 1460.29 1176.02L1635.89 992.304C1640.09 987.909 1642.38 982.029 1642.26 975.951L1634.9 609.329C1634.8 604.534 1633.21 599.889 1630.34 596.044L1438.98 339.367C1433.82 332.455 1425.24 329.005 1416.73 330.43L1198.59 366.993C1190.09 368.419 1183.1 374.479 1180.48 382.693L1083.27 687.739C1081.81 692.309 1081.82 697.219 1083.29 701.784L1195.87 1050.77C1197.74 1056.56 1201.82 1061.37 1207.23 1064.15L1433.13 1180.58Z" stroke="url(#paint2_linear_53_66)" stroke-width="4"/>
<path opacity="0.057971" d="M1392.4 1181.39C1401.19 1186.5 1412.3 1185.23 1419.71 1178.27L1603.6 1005.58C1608.04 1001.41 1610.64 995.656 1610.84 989.57L1622.74 626.544C1622.9 621.736 1621.55 616.999 1618.87 613L1442.41 349.271C1437.62 342.116 1429.24 338.233 1420.69 339.21L1202.28 364.152C1193.72 365.129 1186.43 370.802 1183.38 378.853L1070.93 675.576C1069.22 680.075 1068.97 684.995 1070.21 689.644L1163.65 1040.64C1165.22 1046.52 1169.05 1051.55 1174.32 1054.61L1392.4 1181.39Z" stroke="url(#paint3_linear_53_66)" stroke-width="4"/>
<path opacity="0.0724638" d="M1352 1180.97C1360.49 1186.5 1371.61 1185.82 1379.37 1179.29L1570.88 1017.99C1575.54 1014.07 1578.45 1008.45 1578.98 1002.37L1609.75 643.942C1610.16 639.133 1609.05 634.317 1606.57 630.174L1445.23 360.242C1440.82 352.862 1432.66 348.559 1424.08 349.086L1206.02 362.48C1197.44 363.007 1189.86 368.277 1186.39 376.141L1059.3 663.79C1057.34 668.205 1056.83 673.121 1057.83 677.843L1132.24 1029.81C1133.5 1035.78 1137.08 1041 1142.19 1044.33L1352 1180.97Z" stroke="url(#paint4_linear_53_66)" stroke-width="4"/>
<path opacity="0.0869565" d="M1311.97 1179.35C1320.16 1185.29 1331.26 1185.19 1339.33 1179.11L1537.78 1029.52C1542.65 1025.85 1545.87 1020.38 1546.71 1014.33L1595.9 661.474C1596.57 656.679 1595.71 651.795 1593.44 647.519L1447.38 372.236C1443.35 364.651 1435.44 359.939 1426.85 360.017L1209.74 361.968C1201.16 362.045 1193.33 366.898 1189.44 374.554L1048.35 652.418C1046.16 656.735 1045.38 661.633 1046.14 666.415L1101.66 1018.33C1102.62 1024.37 1105.93 1029.77 1110.87 1033.36L1311.97 1179.35Z" stroke="url(#paint5_linear_53_66)" stroke-width="4"/>
<path opacity="0.101449" d="M1272.39 1176.57C1280.24 1182.9 1291.3 1183.38 1299.66 1177.76L1504.35 1040.16C1509.43 1036.75 1512.93 1031.45 1514.1 1025.45L1581.21 679.095C1582.13 674.327 1581.52 669.388 1579.47 664.988L1448.8 385.205C1445.17 377.437 1437.52 372.331 1428.96 371.959L1213.4 362.604C1204.83 362.232 1196.77 366.656 1192.48 374.081L1038.07 641.491C1035.64 645.697 1034.6 650.564 1035.11 655.395L1071.96 1006.26C1072.6 1012.34 1075.64 1017.92 1080.4 1021.76L1272.39 1176.57Z" stroke="url(#paint6_linear_53_66)" stroke-width="4"/>
<path opacity="0.115942" d="M1233.32 1172.66C1240.81 1179.36 1251.79 1180.41 1260.42 1175.26L1470.64 1049.89C1475.9 1046.76 1479.7 1041.65 1481.18 1035.7L1565.67 696.758C1566.85 692.029 1566.49 687.049 1564.66 682.534L1449.45 399.102C1446.23 391.17 1438.87 385.686 1430.34 384.868L1216.91 364.373C1208.39 363.554 1200.12 367.538 1195.45 374.711L1028.41 631.041C1025.75 635.124 1024.45 639.946 1024.71 644.812L1043.16 993.642C1043.48 999.76 1046.23 1005.5 1050.8 1009.58L1233.32 1172.66Z" stroke="url(#paint7_linear_53_66)" stroke-width="4"/>
<path opacity="0.130435" d="M1194.81 1167.65C1201.93 1174.7 1212.8 1176.32 1221.67 1171.66L1436.71 1058.72C1442.14 1055.87 1446.21 1050.96 1448.01 1045.09L1549.28 714.414C1550.71 709.74 1550.62 704.73 1549.01 700.113L1449.29 413.874C1446.48 405.801 1439.42 399.954 1430.96 398.692L1220.24 367.255C1211.78 365.994 1203.32 369.526 1198.28 376.427L1019.36 621.097C1016.47 625.044 1014.92 629.807 1014.92 634.697L1015.27 980.536C1015.28 986.673 1017.73 992.552 1022.1 996.867L1194.81 1167.65Z" stroke="url(#paint8_linear_53_66)" stroke-width="4"/>
<path opacity="0.144928" d="M1156.91 1161.6C1163.65 1168.98 1174.38 1171.16 1183.46 1167L1402.6 1066.64C1408.18 1064.08 1412.52 1059.39 1414.62 1053.61L1532.05 732.02C1533.73 727.412 1533.9 722.386 1532.52 717.678L1448.27 429.469C1445.87 421.275 1439.14 415.083 1430.77 413.383L1223.3 371.229C1214.94 369.53 1206.32 372.603 1200.92 379.212L1010.87 611.688C1007.77 615.486 1005.96 620.178 1005.71 625.077L988.323 966.997C988.011 973.135 990.168 979.143 994.315 983.68L1156.91 1161.6Z" stroke="url(#paint9_linear_53_66)" stroke-width="4"/>
<path opacity="0.15942" d="M1119.68 1154.54C1126.02 1162.22 1136.58 1164.95 1145.85 1161.3L1368.36 1073.64C1374.08 1071.38 1378.67 1066.92 1381.08 1061.26L1513.99 749.529C1515.92 745 1516.35 739.972 1515.21 735.183L1446.35 445.831C1444.38 437.539 1437.98 431.018 1429.73 428.886L1226.06 376.27C1217.81 374.138 1209.06 376.745 1203.31 383.043L1002.92 602.839C999.607 606.477 997.545 611.082 997.041 615.979L962.332 953.08C961.702 959.204 963.553 965.325 967.471 970.073L1119.68 1154.54Z" stroke="url(#paint10_linear_53_66)" stroke-width="4"/>
<path opacity="0.173913" d="M1083.16 1146.52C1089.09 1154.49 1099.46 1157.75 1108.88 1154.62L1334.04 1079.73C1339.89 1077.78 1344.72 1073.57 1347.43 1068.03L1495.12 766.895C1497.29 762.46 1497.98 757.442 1497.08 752.585L1443.51 462.902C1441.96 454.534 1435.92 447.704 1427.81 445.148L1228.46 382.35C1220.34 379.793 1211.47 381.927 1205.41 387.897L995.478 594.574C991.958 598.039 989.648 602.546 988.888 607.427L937.312 938.841C936.364 944.934 937.902 951.152 941.581 956.101L1083.16 1146.52Z" stroke="url(#paint11_linear_53_66)" stroke-width="4"/>
<path opacity="0.188406" d="M1047.41 1137.59C1052.91 1145.82 1063.06 1149.61 1072.61 1147L1299.69 1084.92C1305.65 1083.29 1310.7 1079.33 1313.71 1073.94L1475.43 784.076C1477.85 779.747 1478.8 774.754 1478.15 769.84L1439.71 480.626C1438.59 472.203 1432.92 465.084 1424.96 462.111L1230.43 389.438C1222.47 386.464 1213.52 388.121 1207.15 393.747L988.502 586.915C984.787 590.197 982.232 594.591 981.217 599.443L913.271 924.337C912.007 930.383 913.227 936.684 916.658 941.82L1047.41 1137.59Z" stroke="url(#paint12_linear_53_66)" stroke-width="4"/>
<path opacity="0.202899" d="M1012.47 1127.8C1017.53 1136.27 1027.42 1140.58 1037.07 1138.49L1265.37 1089.21C1271.41 1087.9 1276.68 1084.21 1279.98 1078.98L1454.96 801.029C1457.61 796.819 1458.82 791.863 1458.42 786.905L1434.92 498.941C1434.23 490.487 1428.94 483.098 1421.16 479.718L1231.94 397.501C1224.16 394.12 1215.15 395.297 1208.5 400.562L981.958 579.882C978.058 582.969 975.263 587.239 973.994 592.049L890.217 909.626C888.639 915.609 889.538 921.975 892.71 927.287L1012.47 1127.8Z" stroke="url(#paint13_linear_53_66)" stroke-width="4"/>
<path opacity="0.217391" d="M978.367 1117.21C982.977 1125.9 992.599 1130.69 1002.31 1129.14L1231.11 1092.61C1237.23 1091.63 1242.69 1088.23 1246.27 1083.16L1433.71 817.712C1436.59 813.633 1438.07 808.728 1437.91 803.737L1429.11 517.788C1428.85 509.323 1423.96 501.686 1416.38 497.91L1232.93 406.503C1225.35 402.726 1216.31 403.421 1209.39 408.31L975.811 573.493C971.735 576.376 968.707 580.507 967.185 585.262L868.154 894.765C866.265 900.668 866.838 907.083 869.744 912.557L978.367 1117.21Z" stroke="url(#paint14_linear_53_66)" stroke-width="4"/>
<path opacity="0.231884" d="M945.146 1105.87C949.299 1114.75 958.621 1120.02 968.368 1119L1196.96 1095.13C1203.14 1094.49 1208.79 1091.38 1212.63 1086.5L1411.71 834.084C1414.82 830.149 1416.55 825.308 1416.65 820.298L1422.28 537.104C1422.44 528.651 1417.96 520.787 1410.6 516.626L1233.36 416.406C1226 412.245 1216.95 412.457 1209.79 416.958L970.023 567.763C965.781 570.431 962.527 574.412 960.755 579.1L847.081 879.809C844.886 885.616 845.131 892.064 847.762 897.687L945.146 1105.87Z" stroke="url(#paint15_linear_53_66)" stroke-width="4"/>
<path opacity="0.246377" d="M912.838 1093.84C916.526 1102.88 925.523 1108.61 935.278 1108.12L1162.97 1096.8C1169.18 1096.49 1175.01 1093.68 1179.11 1089.01L1388.98 850.107C1392.3 846.327 1394.29 841.564 1394.65 836.546L1414.39 556.827C1414.99 548.408 1410.92 540.34 1403.8 535.807L1233.18 427.17C1226.06 422.637 1217.03 422.367 1209.65 426.468L964.557 562.707C960.161 565.151 956.686 568.969 954.667 573.576L826.996 864.816C824.499 870.511 824.415 876.975 826.763 882.734L912.838 1093.84Z" stroke="url(#paint16_linear_53_66)" stroke-width="4"/>
<path opacity="0.26087" d="M881.472 1081.17C884.688 1090.35 893.339 1096.52 903.072 1096.57L1129.19 1097.62C1135.42 1097.65 1141.39 1095.15 1145.75 1090.7L1365.55 865.742C1369.08 862.13 1371.32 857.458 1371.93 852.445L1405.45 576.895C1406.47 568.531 1402.83 560.28 1395.97 555.389L1232.36 438.752C1225.5 433.861 1216.51 433.113 1208.94 436.802L959.375 558.336C954.835 560.547 951.149 564.19 948.885 568.704L807.893 849.841C805.1 855.409 804.685 861.873 806.744 867.752L881.472 1081.17Z" stroke="url(#paint17_linear_53_66)" stroke-width="4"/>
<path opacity="0.275362" d="M851.073 1067.92C853.813 1077.22 862.096 1083.81 871.777 1084.38L1095.65 1097.62C1101.88 1097.99 1107.99 1095.81 1112.58 1091.58L1341.43 880.954C1345.16 877.521 1347.65 872.953 1348.52 867.958L1395.43 597.244C1396.87 588.957 1393.67 580.547 1387.08 575.313L1230.85 451.108C1224.27 445.874 1215.35 444.651 1207.6 447.919L954.437 554.659C949.767 556.629 945.877 560.086 943.374 564.493L789.762 834.938C786.68 840.365 785.935 846.811 787.699 852.797L851.073 1067.92Z" stroke="url(#paint18_linear_53_66)" stroke-width="4"/>
<path opacity="0.289855" d="M821.663 1054.16C823.924 1063.55 831.817 1070.53 841.419 1071.63L1062.4 1096.82C1068.61 1097.53 1074.84 1095.68 1079.66 1091.69L1316.67 895.709C1320.59 892.466 1323.32 888.014 1324.44 883.05L1384.34 617.812C1386.19 609.623 1383.43 601.077 1377.14 595.515L1228.63 464.193C1222.34 458.632 1213.52 456.939 1205.62 459.777L949.707 551.685C944.917 553.405 940.834 556.664 938.095 560.953L772.592 820.164C769.228 825.433 768.153 831.845 769.616 837.923L821.663 1054.16Z" stroke="url(#paint19_linear_53_66)" stroke-width="4"/>
<path opacity="0.304348" d="M793.26 1039.94C795.041 1049.4 802.526 1056.75 812.019 1058.36L1029.47 1095.24C1035.65 1096.28 1041.98 1094.77 1047.01 1091.04L1291.28 909.973C1295.38 906.931 1298.36 902.608 1299.73 897.688L1372.17 638.535C1374.43 630.465 1372.11 621.806 1366.14 615.935L1225.66 477.959C1219.68 472.087 1210.98 469.932 1202.95 472.332L945.144 549.417C940.249 550.88 935.981 553.932 933.013 558.091L756.368 805.569C752.73 810.667 751.327 817.028 752.485 823.183L793.26 1039.94Z" stroke="url(#paint20_linear_53_66)" stroke-width="4"/>
<path opacity="0.318841" d="M765.88 1025.33C767.178 1034.83 774.238 1042.53 783.594 1044.65L996.912 1092.9C1003.03 1094.29 1009.45 1093.11 1014.68 1089.65L1265.3 923.717C1269.58 920.885 1272.78 916.705 1274.41 911.84L1358.92 659.352C1361.58 651.421 1359.72 642.674 1354.07 636.509L1221.91 492.358C1216.26 486.193 1207.7 483.582 1199.57 485.539L940.711 547.859C935.723 549.06 931.281 551.893 928.089 555.909L741.072 791.207C737.167 796.119 735.439 802.413 736.288 808.63L765.88 1025.33Z" stroke="url(#paint21_linear_53_66)" stroke-width="4"/>
<path opacity="0.333333" d="M739.533 1010.38C740.349 1019.9 746.967 1027.92 756.159 1030.54L964.752 1089.84C970.799 1091.56 977.286 1090.73 982.704 1087.54L1238.76 936.911C1243.2 934.299 1246.64 930.273 1248.52 925.477L1344.61 680.201C1347.65 672.428 1346.25 663.616 1340.94 657.177L1217.35 507.338C1212.04 500.899 1203.66 497.842 1195.45 499.352L936.368 547.012C931.302 547.944 926.696 550.55 923.287 554.412L726.681 777.127C722.521 781.839 720.471 788.049 721.008 794.313L739.533 1010.38Z" stroke="url(#paint22_linear_53_66)" stroke-width="4"/>
<path opacity="0.347826" d="M729.725 1016.09L933.028 1086.08C938.983 1088.13 945.518 1087.65 951.108 1084.75L1211.7 949.529C1216.29 947.147 1219.95 943.286 1222.07 938.571L1329.23 701.021C1332.65 693.426 1331.7 684.573 1326.75 677.878L1211.97 522.852C1207.01 516.156 1198.82 512.664 1190.56 513.724L932.078 546.876C926.947 547.534 922.188 549.902 918.569 553.598L713.174 763.378C708.768 767.878 706.4 773.988 706.623 780.282L714.226 995.161C714.563 1004.67 720.724 1013 729.725 1016.09Z" stroke="url(#paint23_linear_53_66)" stroke-width="4"/>
<path opacity="0.362319" d="M689.964 979.731C689.824 989.211 695.516 997.806 704.299 1001.38L901.771 1081.66C907.616 1084.04 914.181 1083.91 919.928 1081.3L1184.15 961.546C1188.89 959.401 1192.75 955.718 1195.12 951.097L1312.8 721.751C1316.59 714.354 1316.1 705.484 1311.51 698.552L1205.74 538.845C1201.15 531.913 1193.18 527.998 1184.88 528.606L927.802 547.446C922.621 547.826 917.721 549.948 913.9 553.468L700.524 750.008C695.883 754.283 693.202 760.277 693.109 766.586L689.964 979.731Z" stroke="url(#paint24_linear_53_66)" stroke-width="4"/>
<path opacity="0.376812" d="M666.746 964.151C666.134 973.574 671.344 982.414 679.885 986.443L871.012 1076.6C876.729 1079.3 883.305 1079.53 889.194 1077.23L1156.16 972.939C1161.01 971.041 1165.08 967.546 1167.7 963.03L1295.33 742.334C1299.48 735.152 1299.45 726.289 1295.23 719.141L1198.65 555.267C1194.43 548.119 1186.7 543.794 1178.4 543.949L923.502 548.718C918.286 548.816 913.258 550.684 909.244 554.016L688.702 737.061C683.837 741.099 680.849 746.961 680.439 753.269L666.746 964.151Z" stroke="url(#paint25_linear_53_66)" stroke-width="4"/>
<path opacity="0.391304" d="M644.57 948.482C643.492 957.824 648.21 966.882 656.484 971.353L840.779 1070.95C846.352 1073.96 852.919 1074.54 858.933 1072.55L1127.74 983.688C1132.72 982.043 1136.98 978.749 1139.83 974.35L1276.85 762.712C1281.35 755.762 1281.77 746.93 1277.94 739.587L1190.68 572.065C1186.85 564.722 1179.38 560.001 1171.1 559.705L919.144 550.685C913.907 550.498 908.763 552.104 904.563 555.238L677.677 724.582C672.601 728.371 669.312 734.085 668.586 740.377L644.57 948.482Z" stroke="url(#paint26_linear_53_66)" stroke-width="4"/>
<path opacity="0.405797" d="M623.43 932.782C621.892 942.02 626.11 951.268 634.093 956.164L811.1 1064.73C816.51 1068.04 823.05 1068.98 829.173 1067.31L1098.95 993.775C1104.03 992.39 1108.48 989.306 1111.56 985.037L1257.37 782.83C1262.2 776.129 1263.07 767.351 1259.64 759.834L1181.82 589.186C1178.39 581.669 1171.2 576.568 1162.97 575.823L914.689 553.338C909.446 552.863 904.2 554.201 899.825 557.128L667.416 712.611C662.141 716.14 658.559 721.692 657.517 727.952L623.43 932.782Z" stroke="url(#paint27_linear_53_66)" stroke-width="4"/>
<path opacity="0.42029" d="M603.314 917.111C601.326 926.221 605.035 935.631 612.706 940.934L781.997 1057.97C787.228 1061.59 793.722 1062.88 799.937 1061.54L1069.83 1003.18C1075 1002.07 1079.62 999.202 1082.93 995.073L1236.93 802.633C1242.08 796.197 1243.39 787.496 1240.37 779.827L1172.07 606.577C1169.05 598.908 1162.15 593.443 1153.99 592.253L910.102 556.665C904.87 555.902 899.534 556.964 894.994 559.674L657.884 701.188C652.423 704.447 648.556 709.821 647.2 716.033L603.314 917.111Z" stroke="url(#paint28_linear_53_66)" stroke-width="4"/>
<path opacity="0.434783" d="M584.211 901.525C581.781 910.486 584.977 920.029 592.314 925.719L753.493 1050.73C758.528 1054.63 764.956 1056.28 771.247 1055.26L1040.41 1011.9C1045.65 1011.06 1050.45 1008.42 1053.97 1004.44L1215.54 822.069C1220.99 815.913 1222.74 807.313 1220.13 799.514L1161.42 624.186C1158.81 616.387 1152.23 610.577 1144.17 608.946L905.349 560.655C900.142 559.602 894.731 560.384 890.036 562.868L649.043 690.349C643.41 693.328 639.267 698.51 637.599 704.66L584.211 901.525Z" stroke="url(#paint29_linear_53_66)" stroke-width="4"/>
<path opacity="0.449275" d="M566.104 886.082C563.243 894.871 565.921 904.519 572.904 910.576L725.607 1043.03C730.43 1047.21 736.774 1049.2 743.122 1048.53L1010.73 1019.91C1016.04 1019.35 1020.99 1016.95 1024.72 1013.14L1193.24 841.088C1198.98 835.226 1201.16 826.749 1198.97 818.842L1149.87 641.961C1147.67 634.054 1141.43 627.916 1133.49 625.853L900.396 565.292C895.231 563.949 889.759 564.446 884.919 566.695L640.853 680.128C635.064 682.819 630.653 687.795 628.677 693.866L566.104 886.082Z" stroke="url(#paint30_linear_53_66)" stroke-width="4"/>
<path opacity="0.463768" d="M548.973 870.835C545.692 879.432 547.851 889.157 554.46 895.558L698.356 1034.91C702.952 1039.36 709.193 1041.7 715.581 1041.36L980.845 1027.22C986.2 1026.93 991.287 1024.78 995.226 1021.14L1170.06 859.643C1176.07 854.088 1178.68 845.756 1176.91 837.764L1137.42 659.85C1135.64 651.858 1129.75 645.411 1121.96 642.923L895.211 570.56C890.102 568.93 884.584 569.136 879.611 571.143L633.275 670.558C627.343 672.952 622.676 677.709 620.395 683.686L548.973 870.835Z" stroke="url(#paint31_linear_53_66)" stroke-width="4"/>
<path opacity="0.478261" d="M532.796 855.838C529.108 864.222 530.746 873.995 536.966 880.718L671.756 1026.42C676.109 1031.12 682.229 1033.8 688.639 1033.8L950.781 1033.8C956.17 1033.8 961.388 1031.91 965.524 1028.45L1146.04 877.688C1152.31 872.453 1155.33 864.287 1153.98 856.233L1124.07 677.801C1122.72 669.747 1117.2 663.013 1109.57 660.107L889.763 576.442C884.726 574.525 879.176 574.438 874.081 576.195L626.266 661.667C620.206 663.757 615.293 668.282 612.712 674.15L532.796 855.838Z" stroke="url(#paint32_linear_53_66)" stroke-width="4"/>
<path opacity="0.492754" d="M517.547 841.142C513.466 849.293 514.585 859.085 520.398 866.107L645.819 1017.59C649.916 1022.53 655.895 1025.54 662.31 1025.88L920.584 1039.66C925.993 1039.95 931.329 1038.32 935.654 1035.06L1121.21 895.179C1127.72 890.275 1131.14 882.297 1130.22 874.203L1109.84 695.764C1108.92 687.671 1103.78 680.67 1096.34 677.359L884.02 582.919C879.071 580.718 873.505 580.334 868.301 581.834L619.782 653.483C613.609 655.262 608.462 659.542 605.586 665.286L517.547 841.142Z" stroke="url(#paint33_linear_53_66)" stroke-width="4"/>
<path opacity="0.507246" d="M503.199 826.796C498.74 834.696 499.341 844.48 504.734 851.774L620.555 1008.45C624.382 1013.63 630.203 1016.97 636.604 1017.65L890.296 1044.79C895.709 1045.37 901.151 1044.01 905.656 1040.96L1095.62 912.076C1102.35 907.515 1106.16 899.743 1105.67 891.633L1094.74 713.691C1094.24 705.581 1089.5 698.335 1082.27 694.63L877.954 589.969C873.109 587.488 867.542 586.805 862.241 588.042L613.777 646.029C607.508 647.492 602.139 651.515 598.975 657.121L503.199 826.796Z" stroke="url(#paint34_linear_53_66)" stroke-width="4"/>
<path opacity="0.521739" d="M489.722 812.848C484.9 820.479 484.987 830.225 489.946 837.768L595.973 999.06C599.517 1004.45 605.162 1008.11 611.53 1009.13L859.958 1049.2C865.359 1050.07 870.895 1048.99 875.57 1046.15L1069.31 928.342C1076.23 924.132 1080.43 916.588 1080.36 908.484L1078.77 731.532C1078.7 723.428 1074.36 715.96 1067.36 711.875L871.538 597.571C866.813 594.813 861.259 593.83 855.874 594.798L608.207 639.326C601.857 640.467 596.279 644.223 592.833 649.676L489.722 812.848Z" stroke="url(#paint35_linear_53_66)" stroke-width="4"/>
<path opacity="0.536232" d="M477.082 799.341C471.913 806.686 471.493 816.369 476.006 824.134L572.079 989.447C575.328 995.037 580.778 999.001 587.097 1000.37L829.609 1052.89C834.985 1054.05 840.6 1053.25 845.435 1050.63L1042.32 943.942C1049.42 940.091 1053.99 932.792 1054.34 924.717L1061.95 749.241C1062.3 741.165 1058.39 733.499 1051.64 729.047L864.745 605.701C860.155 602.671 854.63 601.387 849.174 602.081L603.023 633.393C596.61 634.209 590.836 637.686 587.116 642.973L477.082 799.341Z" stroke="url(#paint36_linear_53_66)" stroke-width="4"/>
<path opacity="0.550725" d="M465.244 786.319C459.746 793.363 458.825 802.954 462.882 810.915L548.876 979.654C551.818 985.427 557.058 989.691 563.308 991.398L799.291 1055.86C804.625 1057.32 810.306 1056.8 815.293 1054.41L1014.69 958.842C1021.96 955.358 1026.88 948.324 1027.65 940.3L1044.31 766.771C1045.08 758.748 1041.59 750.906 1035.12 746.103L857.551 614.334C853.111 611.039 847.632 609.454 842.118 609.869L598.18 628.245C591.719 628.731 585.763 631.92 581.777 637.028L465.244 786.319Z" stroke="url(#paint37_linear_53_66)" stroke-width="4"/>
<path opacity="0.565217" d="M454.171 773.822C448.361 780.549 446.948 790.022 450.541 798.152L526.365 969.72C528.99 975.659 534.002 980.212 540.166 982.255L769.043 1058.12C774.321 1059.87 780.053 1059.65 785.18 1057.49L986.481 973.015C993.893 969.904 999.143 963.15 1000.33 955.2L1025.86 784.08C1027.04 776.13 1023.99 768.138 1017.81 763L849.933 623.445C845.658 619.891 840.24 618.006 834.681 618.138L593.627 623.895C587.136 624.05 581.013 626.941 576.769 631.856L454.171 773.822Z" stroke="url(#paint38_linear_53_66)" stroke-width="4"/>
<path opacity="0.57971" d="M443.823 761.887C437.721 768.284 435.825 777.613 438.947 785.884L504.545 959.684C506.843 965.772 511.613 970.602 517.671 972.976L738.904 1059.68C744.11 1061.72 749.88 1061.79 755.136 1059.88L957.732 986.433C965.267 983.701 970.836 977.244 972.432 969.389L1006.62 801.125C1008.22 793.271 1005.61 785.152 999.737 779.697L841.869 633.006C837.773 629.201 832.432 627.017 826.843 626.864L589.318 620.352C582.813 620.174 576.537 622.759 572.045 627.468L443.823 761.887Z" stroke="url(#paint39_linear_53_66)" stroke-width="4"/>
<path opacity="0.594203" d="M434.159 750.549C427.783 756.603 425.417 765.763 428.063 774.148L483.414 949.583C485.376 955.803 489.887 960.898 495.823 963.598L708.913 1060.54C714.03 1062.87 719.823 1063.24 725.198 1061.59L928.495 999.073C936.133 996.724 942.004 990.579 944.003 982.842L986.623 817.865C988.622 810.128 986.461 801.908 980.917 796.154L833.339 642.991C829.438 638.942 824.188 636.462 818.583 636.02L585.202 617.624C578.7 617.111 572.287 619.383 567.557 623.875L434.159 750.549Z" stroke="url(#paint40_linear_53_66)" stroke-width="4"/>
<path opacity="0.608696" d="M425.137 739.84C418.508 745.54 415.684 754.506 417.849 762.977L462.966 939.458C464.585 945.791 468.822 951.136 474.619 954.157L679.106 1060.73C684.121 1063.35 689.923 1064.02 695.403 1062.63L898.82 1010.92C906.541 1008.95 912.697 1003.13 915.09 995.536L965.893 834.263C968.287 826.664 966.578 818.368 961.376 812.334L824.325 653.369C820.632 649.087 815.491 646.314 809.884 645.582L581.232 615.714C574.751 614.868 568.215 616.819 563.258 621.081L425.137 739.84Z" stroke="url(#paint41_linear_53_66)" stroke-width="4"/>
<path opacity="0.623188" d="M416.712 729.789C409.85 735.125 406.581 743.873 408.265 752.402L443.193 929.344C444.462 935.771 448.412 941.353 454.052 944.687L649.52 1060.26C654.417 1063.16 660.212 1064.14 665.787 1063.01L868.758 1021.94C876.542 1020.37 882.963 1014.89 885.743 1007.45L944.46 850.28C947.239 842.84 945.984 834.493 941.139 828.2L814.81 664.113C811.34 659.606 806.323 656.545 800.728 655.52L577.359 614.625C570.914 613.445 564.272 615.069 559.1 619.09L416.712 729.789Z" stroke="url(#paint42_linear_53_66)" stroke-width="4"/>
<path opacity="0.637681" d="M408.839 720.423C401.764 725.385 398.067 733.893 399.268 742.451L424.088 919.277C425 925.78 428.649 931.583 434.115 935.223L620.191 1059.15C624.954 1062.32 630.728 1063.6 636.386 1062.75L838.361 1032.15C846.188 1030.96 852.856 1025.83 856.01 1018.57L922.354 865.883C925.509 858.622 924.708 850.249 920.233 843.718L804.78 675.192C801.546 670.471 796.668 667.126 791.099 665.809L573.534 614.353C567.143 612.841 560.412 614.133 555.035 617.904L408.839 720.423Z" stroke="url(#paint43_linear_53_66)" stroke-width="4"/>
<path opacity="0.652174" d="M401.472 711.765C394.205 716.344 390.096 724.592 390.816 733.151L405.638 909.294C406.19 915.853 409.525 921.861 414.8 925.798L591.153 1057.41C595.767 1060.86 601.505 1062.44 607.233 1061.86L807.682 1041.51C815.532 1040.71 822.426 1035.94 825.944 1028.88L899.608 881.039C903.127 873.976 902.78 865.603 898.689 858.856L794.221 686.576C791.236 681.652 786.513 678.028 780.985 676.418L569.71 614.894C563.39 613.054 556.585 614.009 551.016 617.519L401.472 711.765Z" stroke="url(#paint44_linear_53_66)" stroke-width="4"/>
<path opacity="0.666667" d="M394.562 703.834C387.125 708.025 382.621 715.991 382.863 724.524L387.83 899.428C388.017 906.023 391.027 912.22 396.096 916.444L562.438 1055.07C566.888 1058.78 572.575 1060.67 578.36 1060.37L776.771 1050.02C784.624 1049.61 791.724 1045.22 795.595 1038.37L876.256 895.719C880.126 888.873 880.231 880.525 876.534 873.584L783.123 698.233C780.399 693.119 775.846 689.222 770.374 687.321L565.839 616.242C559.607 614.076 552.745 614.691 546.997 617.93L394.562 703.834Z" stroke="url(#paint45_linear_53_66)" stroke-width="4"/>
<path opacity="0.681159" d="M388.062 696.65C380.476 700.447 375.597 708.111 375.366 716.591L370.65 889.713C370.47 896.324 373.144 902.692 377.99 907.192L534.078 1052.15C538.35 1056.11 543.97 1058.31 549.8 1058.29L745.683 1057.69C753.519 1057.66 760.804 1053.65 765.013 1047.04L852.334 909.894C856.543 903.284 857.096 894.985 853.803 887.875L771.476 710.132C769.025 704.841 764.657 700.679 759.254 698.486L561.875 618.386C555.747 615.899 548.845 616.17 542.931 619.13L388.062 696.65Z" stroke="url(#paint46_linear_53_66)" stroke-width="4"/>
<path opacity="0.695652" d="M381.923 690.225C374.21 693.623 368.974 700.968 368.276 709.367L354.081 880.18C353.532 886.787 355.86 893.309 360.469 898.074L506.102 1048.67C510.182 1052.88 515.72 1055.38 521.582 1055.65L714.467 1064.5C722.267 1064.86 729.716 1061.23 734.249 1054.87L827.877 923.54C832.41 917.182 833.407 908.958 830.526 901.701L759.271 722.242C757.105 716.787 752.936 712.367 747.618 709.886L557.771 621.314C551.764 618.511 544.839 618.437 538.772 621.11L381.923 690.225Z" stroke="url(#paint47_linear_53_66)" stroke-width="4"/>
<path opacity="0.710145" d="M376.096 684.571C368.278 687.568 362.707 694.576 361.55 702.868L338.105 870.862C337.187 877.443 339.16 884.1 343.516 889.118L478.54 1044.66C482.413 1049.12 487.853 1051.92 493.734 1052.47L683.177 1070.46C690.922 1071.2 698.513 1067.97 703.355 1061.88L802.926 936.634C807.767 930.544 809.202 922.42 806.739 915.04L746.503 734.531C744.633 728.927 740.679 724.258 735.46 721.49L553.485 625.01C547.614 621.897 540.683 621.476 534.478 623.855L376.096 684.571Z" stroke="url(#paint48_linear_53_66)" stroke-width="4"/>
<path opacity="0.724638" d="M370.531 679.697C362.631 682.29 356.745 688.946 355.138 697.105L322.703 861.786C321.415 868.322 323.025 875.095 327.115 880.353L451.417 1040.14C455.069 1044.84 460.398 1047.93 466.284 1048.78L651.863 1075.58C659.533 1076.69 667.246 1073.86 672.38 1068.05L777.516 949.155C782.65 943.349 784.515 935.348 782.477 927.87L733.168 746.967C731.604 741.228 727.878 736.319 722.772 733.269L548.972 629.458C543.253 626.042 536.334 625.273 530.004 627.351L370.531 679.697Z" stroke="url(#paint49_linear_53_66)" stroke-width="4"/>
<path opacity="0.73913" d="M365.18 675.607C357.218 677.796 351.041 684.086 348.995 692.086L307.852 852.98C306.198 859.45 307.437 866.32 311.248 871.804L424.759 1035.15C428.177 1040.07 433.378 1043.46 439.257 1044.6L620.575 1079.86C628.153 1081.34 635.964 1078.91 641.374 1073.4L751.689 961.085C757.098 955.578 759.384 947.724 757.774 940.173L719.264 759.518C718.015 753.661 714.531 748.522 709.552 745.193L544.19 634.636C538.639 630.925 531.748 629.809 525.309 631.579L365.18 675.607Z" stroke="url(#paint50_linear_53_66)" stroke-width="4"/>
<path opacity="0.753623" d="M359.994 672.305C351.992 674.09 345.546 680 343.074 687.817L293.532 844.472C291.514 850.855 292.376 857.801 295.895 863.496L398.59 1029.72C401.76 1034.85 406.819 1038.53 412.676 1039.97L589.363 1083.32C596.83 1085.15 604.719 1083.13 610.386 1077.93L725.484 972.41C731.151 967.214 733.847 959.53 732.669 951.932L704.789 772.154C703.864 766.194 700.636 760.836 695.799 757.233L539.1 640.523C533.731 636.525 526.886 635.063 520.352 636.521L359.994 672.305Z" stroke="url(#paint51_linear_53_66)" stroke-width="4"/>
<path opacity="0.768116" d="M354.923 669.788C346.903 671.172 340.212 676.691 337.327 684.301L279.718 836.286C277.34 842.561 277.821 849.563 281.035 855.454L372.93 1023.87C375.839 1029.2 380.741 1033.17 386.564 1034.9L558.275 1085.96C565.614 1088.14 573.558 1086.53 579.465 1081.66L698.941 983.117C704.848 978.245 707.943 970.753 707.197 963.132L689.744 784.843C689.153 778.796 686.193 773.23 681.511 769.359L533.661 647.095C528.489 642.818 521.707 641.013 515.094 642.154L354.923 669.788Z" stroke="url(#paint52_linear_53_66)" stroke-width="4"/>
<path opacity="0.782609" d="M349.921 668.054C341.904 669.038 334.991 674.156 331.709 681.537L266.386 828.444C263.652 834.592 263.748 841.628 266.647 847.7L347.798 1017.64C350.436 1023.16 355.165 1027.4 360.94 1029.43L527.357 1087.81C534.552 1090.33 542.529 1089.13 548.657 1084.59L672.101 993.195C678.229 988.658 681.71 981.38 681.396 973.762L674.133 797.553C673.881 791.438 671.203 785.676 666.69 781.541L527.838 654.323C522.877 649.778 516.175 647.633 509.497 648.453L349.921 668.054Z" stroke="url(#paint53_linear_53_66)" stroke-width="4"/>
<path opacity="0.797101" d="M344.938 667.095C336.945 667.685 329.835 672.394 326.172 679.523L253.509 820.968C250.427 826.968 250.134 834.019 252.707 840.254L323.213 1011.06C325.566 1016.76 330.109 1021.27 335.823 1023.59L496.657 1088.88C503.69 1091.73 511.679 1090.93 518.007 1086.74L645.005 1002.64C651.334 998.446 655.187 991.402 655.303 983.813L657.96 810.254C658.054 804.088 655.669 798.143 651.339 793.752L521.595 662.181C516.858 657.378 510.252 654.896 503.525 655.393L344.938 667.095Z" stroke="url(#paint54_linear_53_66)" stroke-width="4"/>
<path opacity="0.811594" d="M339.93 666.903C331.981 667.104 324.699 671.396 320.674 678.253L241.062 813.879C237.638 819.711 236.955 826.754 239.194 833.136L299.191 1004.16C301.248 1010.02 305.59 1014.81 311.229 1017.42L466.217 1089.19C473.073 1092.37 481.052 1091.97 487.561 1088.14L617.694 1011.44C624.204 1007.6 628.413 1000.81 628.956 993.276L641.231 822.916C641.677 816.718 639.597 810.603 635.463 805.963L514.898 670.637C510.399 665.587 503.906 662.773 497.146 662.944L339.93 666.903Z" stroke="url(#paint55_linear_53_66)" stroke-width="4"/>
<path opacity="0.826087" d="M334.85 667.466C326.965 667.283 319.537 671.153 315.168 677.719L229.016 807.193C225.26 812.837 224.186 819.852 226.08 826.362L275.744 996.983C277.495 1003 281.622 1008.04 287.173 1010.94L436.08 1088.78C442.745 1092.26 450.692 1092.27 457.361 1088.79L590.208 1019.59C596.878 1016.12 601.428 1009.61 602.393 1002.15L623.952 835.51C624.756 829.299 622.991 823.028 619.067 818.147L507.716 679.658C503.467 674.374 497.104 671.234 490.325 671.077L334.85 667.466Z" stroke="url(#paint56_linear_53_66)" stroke-width="4"/>
<path opacity="0.84058" d="M329.654 668.769C321.854 668.21 314.303 671.653 309.611 677.91L217.343 800.926C213.264 806.365 211.8 813.329 213.344 819.949L252.885 989.558C254.319 995.707 258.217 1001 263.666 1004.19L406.287 1087.66C412.746 1091.44 420.64 1091.84 427.449 1088.74L562.588 1027.11C569.397 1024 574.27 1017.78 575.65 1010.42L606.134 848.007C607.299 841.801 605.861 835.389 602.158 830.275L500.02 689.213C496.034 683.706 489.815 680.246 483.035 679.76L329.654 668.769Z" stroke="url(#paint57_linear_53_66)" stroke-width="4"/>
<path opacity="0.855072" d="M303.961 678.813L206.016 795.094C201.625 800.307 199.772 807.199 200.957 813.911L230.623 981.922C231.73 988.191 235.386 993.721 240.721 997.196L376.876 1085.87C383.115 1089.93 390.936 1090.72 397.863 1087.99L534.873 1033.98C541.8 1031.25 546.977 1025.33 548.765 1018.11L587.787 860.378C589.316 854.198 588.215 847.661 584.746 842.322L491.784 699.263C488.07 693.548 482.013 689.775 475.246 688.96L324.3 670.795C316.602 669.868 308.956 672.883 303.961 678.813Z" stroke="url(#paint58_linear_53_66)" stroke-width="4"/>
<path opacity="0.869565" d="M318.746 673.524C311.17 672.239 303.452 674.824 298.177 680.412L195.004 789.708C190.313 794.678 188.075 801.476 188.895 808.26L208.965 974.109C209.736 980.483 213.137 986.245 218.344 990.001L347.884 1083.43C353.891 1087.76 361.618 1088.94 368.642 1086.58L507.102 1040.22C514.126 1037.86 519.587 1032.27 521.774 1025.2L568.922 872.597C570.818 866.463 570.063 859.816 566.84 854.262L482.982 709.774C479.552 703.864 473.671 699.785 466.933 698.643L318.746 673.524Z" stroke="url(#paint59_linear_53_66)" stroke-width="4"/>
<path opacity="0.884058" d="M312.952 676.933C305.514 675.302 297.751 677.457 292.219 682.689L184.278 784.78C179.3 789.488 176.68 796.17 177.132 803.007L187.917 966.157C188.344 972.619 191.476 978.602 196.543 982.635L319.344 1080.38C325.108 1084.97 332.721 1086.52 339.82 1084.55L479.314 1045.82C486.413 1043.85 492.138 1038.6 494.712 1031.7L549.554 884.638C551.817 878.569 551.417 871.828 548.452 866.071L473.592 720.708C470.455 714.616 464.766 710.241 458.073 708.773L312.952 676.933Z" stroke="url(#paint60_linear_53_66)" stroke-width="4"/>
<path opacity="0.898551" d="M306.881 681C299.599 679.033 291.815 680.76 286.049 685.624L173.808 780.317C168.557 784.746 165.561 791.292 165.64 798.161L167.483 958.1C167.558 964.634 170.409 970.827 175.323 975.133L291.289 1076.75C296.799 1081.58 304.279 1083.5 311.431 1081.91L451.546 1050.81C458.698 1049.22 464.666 1044.32 467.616 1037.61L529.697 896.474C532.328 890.493 532.29 883.675 529.594 877.723L463.595 732.025C460.76 725.767 455.276 721.104 448.644 719.312L306.881 681Z" stroke="url(#paint61_linear_53_66)" stroke-width="4"/>
<path opacity="0.913043" d="M300.495 685.698C293.385 683.406 285.605 684.71 279.631 689.195L163.565 776.326C158.056 780.461 154.691 786.848 154.394 793.73L147.663 949.975C147.379 956.562 149.936 962.955 154.685 967.53L263.749 1072.59C268.995 1077.64 276.324 1079.91 283.507 1078.7L423.835 1055.18C431.018 1053.98 437.207 1049.44 440.518 1042.96L509.367 908.081C512.365 902.208 512.698 895.331 510.281 889.196L452.972 743.685C450.448 737.276 445.185 732.336 438.628 730.222L300.495 685.698Z" stroke="url(#paint62_linear_53_66)" stroke-width="4"/>
<path opacity="0.927536" d="M293.762 690.999C286.84 688.396 279.088 689.281 272.93 693.378L153.518 772.813C147.768 776.638 144.041 782.845 143.367 789.719L128.457 941.816C127.808 948.44 130.06 955.021 134.631 959.858L236.75 1067.92C241.723 1073.18 248.883 1075.79 256.076 1074.97L396.215 1058.97C403.409 1058.14 409.795 1053.98 413.453 1047.74L488.581 919.437C491.944 913.693 492.654 906.775 490.528 900.468L441.71 755.648C439.504 749.103 434.474 743.897 428.009 741.466L293.762 690.999L294.466 689.126L293.762 690.999Z" stroke="url(#paint63_linear_53_66)" stroke-width="4"/>
<path opacity="0.942029" d="M286.649 696.872C279.928 693.972 272.228 694.445 265.913 698.145L143.638 769.781C137.663 773.281 133.583 779.288 132.532 786.133L109.863 933.661C108.842 940.302 110.777 947.058 115.159 952.152L210.318 1062.78C215.01 1068.24 221.984 1071.18 229.165 1070.74L368.721 1062.17C375.903 1061.73 382.464 1057.95 386.453 1051.96L467.357 930.519C471.082 924.926 472.176 917.985 470.35 911.518L429.796 767.873C427.914 761.209 423.13 755.747 416.771 753.004L286.649 696.872Z" stroke="url(#paint64_linear_53_66)" stroke-width="4"/>
<path opacity="0.956522" d="M279.127 703.286C272.621 700.104 264.996 700.172 258.548 703.47L133.896 767.231C127.714 770.393 123.292 776.178 121.862 782.973L91.8751 925.542C90.4784 932.183 92.0853 939.101 96.2659 944.446L184.474 1057.22C188.878 1062.85 195.649 1066.12 202.797 1066.05L341.386 1064.81C348.534 1064.74 355.246 1061.36 359.548 1055.65L445.714 941.305C449.798 935.886 451.28 928.94 449.764 922.326L417.22 780.319C415.668 773.551 411.143 767.845 404.905 764.795L279.127 703.286Z" stroke="url(#paint65_linear_53_66)" stroke-width="4"/>
<path opacity="0.971014" d="M271.166 710.207C264.888 706.759 257.362 706.432 250.808 709.324L124.261 765.162C117.891 767.973 113.137 773.518 111.332 780.242L74.4872 917.496C72.71 924.116 73.9782 931.184 77.946 936.773L159.237 1051.28C163.347 1057.07 169.901 1060.64 176.994 1060.95L314.239 1066.9C321.333 1067.21 328.171 1064.23 332.767 1058.82L423.673 951.778C428.11 946.553 429.986 939.622 428.789 932.873L403.974 792.942C402.758 786.087 398.502 780.151 392.4 776.8L271.166 710.207Z" stroke="url(#paint66_linear_53_66)" stroke-width="4"/>
<path opacity="0.985507" d="M262.744 717.602C256.705 713.902 249.299 713.191 242.666 715.674L114.705 763.574C108.168 766.021 103.095 771.305 100.917 777.938L57.6912 909.556C55.5303 916.136 56.4493 923.339 60.1931 929.166L134.624 1045C138.436 1050.94 144.757 1054.79 151.776 1055.47L287.312 1068.48C294.331 1069.15 301.27 1066.57 306.141 1061.47L401.256 961.917C406.04 956.909 408.313 950.012 407.443 943.142L390.054 805.702C389.178 798.777 385.204 792.624 379.251 788.977L262.744 717.602Z" stroke="url(#paint67_linear_53_66)" stroke-width="4"/>
<path d="M253.836 725.434C248.047 721.5 240.781 720.416 234.096 722.489L105.2 762.461C98.5147 764.535 93.1372 769.539 90.5898 776.059L41.4759 901.756C38.9285 908.275 39.4885 915.6 42.9974 921.657L110.649 1038.43C114.158 1044.48 120.234 1048.61 127.157 1049.64L260.631 1069.56C267.554 1070.59 274.571 1068.41 279.694 1063.65L378.483 971.706C383.606 966.937 386.28 960.095 385.746 953.116L375.458 818.557C374.925 811.578 371.242 805.221 365.453 801.287L253.836 725.434Z" stroke="url(#paint68_linear_53_66)" stroke-width="4"/>
<defs>
<linearGradient id="paint0_linear_53_66" x1="1532.04" y1="1183.91" x2="1277.63" y2="267.466" gradientUnits="userSpaceOnUse">
<stop stop-color="#FF1CF7"/>
<stop offset="1" stop-color="#00F0FF"/>
</linearGradient>
<linearGradient id="paint1_linear_53_66" x1="1490.36" y1="1188.07" x2="1286.08" y2="267.758" gradientUnits="userSpaceOnUse">
<stop stop-color="#FF1CF7"/>
<stop offset="1" stop-color="#00F0FF"/>
</linearGradient>
<linearGradient id="paint2_linear_53_66" x1="1448.83" y1="1190.91" x2="1294.38" y2="269.456" gradientUnits="userSpaceOnUse">
<stop stop-color="#FF1CF7"/>
<stop offset="1" stop-color="#00F0FF"/>
</linearGradient>
<linearGradient id="paint3_linear_53_66" x1="1407.5" y1="1192.48" x2="1302.44" y2="272.538" gradientUnits="userSpaceOnUse">
<stop stop-color="#FF1CF7"/>
<stop offset="1" stop-color="#00F0FF"/>
</linearGradient>
<linearGradient id="paint4_linear_53_66" x1="1366.46" y1="1192.78" x2="1310.21" y2="276.978" gradientUnits="userSpaceOnUse">
<stop stop-color="#FF1CF7"/>
<stop offset="1" stop-color="#00F0FF"/>
</linearGradient>
<linearGradient id="paint5_linear_53_66" x1="1325.77" y1="1191.84" x2="1317.6" y2="282.746" gradientUnits="userSpaceOnUse">
<stop stop-color="#FF1CF7"/>
<stop offset="1" stop-color="#00F0FF"/>
</linearGradient>
<linearGradient id="paint6_linear_53_66" x1="1285.48" y1="1189.7" x2="1324.54" y2="289.81" gradientUnits="userSpaceOnUse">
<stop stop-color="#FF1CF7"/>
<stop offset="1" stop-color="#00F0FF"/>
</linearGradient>
<linearGradient id="paint7_linear_53_66" x1="1245.68" y1="1186.38" x2="1330.97" y2="298.131" gradientUnits="userSpaceOnUse">
<stop stop-color="#FF1CF7"/>
<stop offset="1" stop-color="#00F0FF"/>
</linearGradient>
<linearGradient id="paint8_linear_53_66" x1="1206.41" y1="1181.94" x2="1336.83" y2="307.67" gradientUnits="userSpaceOnUse">
<stop stop-color="#FF1CF7"/>
<stop offset="1" stop-color="#00F0FF"/>
</linearGradient>
<linearGradient id="paint9_linear_53_66" x1="1167.73" y1="1176.4" x2="1342.06" y2="318.384" gradientUnits="userSpaceOnUse">
<stop stop-color="#FF1CF7"/>
<stop offset="1" stop-color="#00F0FF"/>
</linearGradient>
<linearGradient id="paint10_linear_53_66" x1="1129.69" y1="1169.82" x2="1346.59" y2="330.225" gradientUnits="userSpaceOnUse">
<stop stop-color="#FF1CF7"/>
<stop offset="1" stop-color="#00F0FF"/>
</linearGradient>
<linearGradient id="paint11_linear_53_66" x1="1092.35" y1="1162.23" x2="1350.37" y2="343.144" gradientUnits="userSpaceOnUse">
<stop stop-color="#FF1CF7"/>
<stop offset="1" stop-color="#00F0FF"/>
</linearGradient>
<linearGradient id="paint12_linear_53_66" x1="1055.76" y1="1153.68" x2="1353.35" y2="357.09" gradientUnits="userSpaceOnUse">
<stop stop-color="#FF1CF7"/>
<stop offset="1" stop-color="#00F0FF"/>
</linearGradient>
<linearGradient id="paint13_linear_53_66" x1="1019.95" y1="1144.23" x2="1355.49" y2="372.008" gradientUnits="userSpaceOnUse">
<stop stop-color="#FF1CF7"/>
<stop offset="1" stop-color="#00F0FF"/>
</linearGradient>
<linearGradient id="paint14_linear_53_66" x1="984.978" y1="1133.94" x2="1356.72" y2="387.841" gradientUnits="userSpaceOnUse">
<stop stop-color="#FF1CF7"/>
<stop offset="1" stop-color="#00F0FF"/>
</linearGradient>
<linearGradient id="paint15_linear_53_66" x1="950.875" y1="1122.84" x2="1357.03" y2="404.53" gradientUnits="userSpaceOnUse">
<stop stop-color="#FF1CF7"/>
<stop offset="1" stop-color="#00F0FF"/>
</linearGradient>
<linearGradient id="paint16_linear_53_66" x1="917.677" y1="1111" x2="1356.36" y2="422.016" gradientUnits="userSpaceOnUse">
<stop stop-color="#FF1CF7"/>
<stop offset="1" stop-color="#00F0FF"/>
</linearGradient>
<linearGradient id="paint17_linear_53_66" x1="885.416" y1="1098.48" x2="1354.68" y2="440.235" gradientUnits="userSpaceOnUse">
<stop stop-color="#FF1CF7"/>
<stop offset="1" stop-color="#00F0FF"/>
</linearGradient>
<linearGradient id="paint18_linear_53_66" x1="854.119" y1="1085.34" x2="1351.97" y2="459.124" gradientUnits="userSpaceOnUse">
<stop stop-color="#FF1CF7"/>
<stop offset="1" stop-color="#00F0FF"/>
</linearGradient>
<linearGradient id="paint19_linear_53_66" x1="823.812" y1="1071.63" x2="1348.19" y2="478.62" gradientUnits="userSpaceOnUse">
<stop stop-color="#FF1CF7"/>
<stop offset="1" stop-color="#00F0FF"/>
</linearGradient>
<linearGradient id="paint20_linear_53_66" x1="794.515" y1="1057.42" x2="1343.33" y2="498.656" gradientUnits="userSpaceOnUse">
<stop stop-color="#FF1CF7"/>
<stop offset="1" stop-color="#00F0FF"/>
</linearGradient>
<linearGradient id="paint21_linear_53_66" x1="766.244" y1="1042.77" x2="1337.36" y2="519.166" gradientUnits="userSpaceOnUse">
<stop stop-color="#FF1CF7"/>
<stop offset="1" stop-color="#00F0FF"/>
</linearGradient>
<linearGradient id="paint22_linear_53_66" x1="739.014" y1="1027.74" x2="1330.28" y2="540.085" gradientUnits="userSpaceOnUse">
<stop stop-color="#FF1CF7"/>
<stop offset="1" stop-color="#00F0FF"/>
</linearGradient>
<linearGradient id="paint23_linear_53_66" x1="712.835" y1="1012.4" x2="1322.06" y2="561.345" gradientUnits="userSpaceOnUse">
<stop stop-color="#FF1CF7"/>
<stop offset="1" stop-color="#00F0FF"/>
</linearGradient>
<linearGradient id="paint24_linear_53_66" x1="687.712" y1="996.792" x2="1312.71" y2="582.879" gradientUnits="userSpaceOnUse">
<stop stop-color="#FF1CF7"/>
<stop offset="1" stop-color="#00F0FF"/>
</linearGradient>
<linearGradient id="paint25_linear_53_66" x1="663.648" y1="980.995" x2="1302.22" y2="604.622" gradientUnits="userSpaceOnUse">
<stop stop-color="#FF1CF7"/>
<stop offset="1" stop-color="#00F0FF"/>
</linearGradient>
<linearGradient id="paint26_linear_53_66" x1="640.643" y1="965.066" x2="1290.59" y2="626.507" gradientUnits="userSpaceOnUse">
<stop stop-color="#FF1CF7"/>
<stop offset="1" stop-color="#00F0FF"/>
</linearGradient>
<linearGradient id="paint27_linear_53_66" x1="618.693" y1="949.065" x2="1277.83" y2="648.469" gradientUnits="userSpaceOnUse">
<stop stop-color="#FF1CF7"/>
<stop offset="1" stop-color="#00F0FF"/>
</linearGradient>
<linearGradient id="paint28_linear_53_66" x1="597.788" y1="933.052" x2="1263.95" y2="670.444" gradientUnits="userSpaceOnUse">
<stop stop-color="#FF1CF7"/>
<stop offset="1" stop-color="#00F0FF"/>
</linearGradient>
<linearGradient id="paint29_linear_53_66" x1="577.919" y1="917.086" x2="1248.95" y2="692.368" gradientUnits="userSpaceOnUse">
<stop stop-color="#FF1CF7"/>
<stop offset="1" stop-color="#00F0FF"/>
</linearGradient>
<linearGradient id="paint30_linear_53_66" x1="559.071" y1="901.225" x2="1232.85" y2="714.179" gradientUnits="userSpaceOnUse">
<stop stop-color="#FF1CF7"/>
<stop offset="1" stop-color="#00F0FF"/>
</linearGradient>
<linearGradient id="paint31_linear_53_66" x1="541.226" y1="885.525" x2="1215.68" y2="735.818" gradientUnits="userSpaceOnUse">
<stop stop-color="#FF1CF7"/>
<stop offset="1" stop-color="#00F0FF"/>
</linearGradient>
<linearGradient id="paint32_linear_53_66" x1="524.364" y1="870.041" x2="1197.45" y2="757.224" gradientUnits="userSpaceOnUse">
<stop stop-color="#FF1CF7"/>
<stop offset="1" stop-color="#00F0FF"/>
</linearGradient>
<linearGradient id="paint33_linear_53_66" x1="508.461" y1="854.825" x2="1178.19" y2="778.342" gradientUnits="userSpaceOnUse">
<stop stop-color="#FF1CF7"/>
<stop offset="1" stop-color="#00F0FF"/>
</linearGradient>
<linearGradient id="paint34_linear_53_66" x1="493.49" y1="839.929" x2="1157.92" y2="799.116" gradientUnits="userSpaceOnUse">
<stop stop-color="#FF1CF7"/>
<stop offset="1" stop-color="#00F0FF"/>
</linearGradient>
<linearGradient id="paint35_linear_53_66" x1="479.423" y1="825.402" x2="1136.69" y2="819.494" gradientUnits="userSpaceOnUse">
<stop stop-color="#FF1CF7"/>
<stop offset="1" stop-color="#00F0FF"/>
</linearGradient>
<linearGradient id="paint36_linear_53_66" x1="466.228" y1="811.29" x2="1114.52" y2="839.425" gradientUnits="userSpaceOnUse">
<stop stop-color="#FF1CF7"/>
<stop offset="1" stop-color="#00F0FF"/>
</linearGradient>
<linearGradient id="paint37_linear_53_66" x1="453.872" y1="797.638" x2="1091.44" y2="858.862" gradientUnits="userSpaceOnUse">
<stop stop-color="#FF1CF7"/>
<stop offset="1" stop-color="#00F0FF"/>
</linearGradient>
<linearGradient id="paint38_linear_53_66" x1="442.317" y1="784.489" x2="1067.51" y2="877.758" gradientUnits="userSpaceOnUse">
<stop stop-color="#FF1CF7"/>
<stop offset="1" stop-color="#00F0FF"/>
</linearGradient>
<linearGradient id="paint39_linear_53_66" x1="431.525" y1="771.882" x2="1042.75" y2="896.071" gradientUnits="userSpaceOnUse">
<stop stop-color="#FF1CF7"/>
<stop offset="1" stop-color="#00F0FF"/>
</linearGradient>
<linearGradient id="paint40_linear_53_66" x1="421.456" y1="759.854" x2="1017.22" y2="913.762" gradientUnits="userSpaceOnUse">
<stop stop-color="#FF1CF7"/>
<stop offset="1" stop-color="#00F0FF"/>
</linearGradient>
<linearGradient id="paint41_linear_53_66" x1="412.068" y1="748.439" x2="990.95" y2="930.794" gradientUnits="userSpaceOnUse">
<stop stop-color="#FF1CF7"/>
<stop offset="1" stop-color="#00F0FF"/>
</linearGradient>
<linearGradient id="paint42_linear_53_66" x1="403.318" y1="737.669" x2="963.999" y2="947.133" gradientUnits="userSpaceOnUse">
<stop stop-color="#FF1CF7"/>
<stop offset="1" stop-color="#00F0FF"/>
</linearGradient>
<linearGradient id="paint43_linear_53_66" x1="395.16" y1="727.573" x2="936.411" y2="962.748" gradientUnits="userSpaceOnUse">
<stop stop-color="#FF1CF7"/>
<stop offset="1" stop-color="#00F0FF"/>
</linearGradient>
<linearGradient id="paint44_linear_53_66" x1="387.549" y1="718.175" x2="908.237" y2="977.611" gradientUnits="userSpaceOnUse">
<stop stop-color="#FF1CF7"/>
<stop offset="1" stop-color="#00F0FF"/>
</linearGradient>
<linearGradient id="paint45_linear_53_66" x1="380.436" y1="709.499" x2="879.525" y2="991.699" gradientUnits="userSpaceOnUse">
<stop stop-color="#FF1CF7"/>
<stop offset="1" stop-color="#00F0FF"/>
</linearGradient>
<linearGradient id="paint46_linear_53_66" x1="373.774" y1="701.565" x2="850.329" y2="1004.99" gradientUnits="userSpaceOnUse">
<stop stop-color="#FF1CF7"/>
<stop offset="1" stop-color="#00F0FF"/>
</linearGradient>
<linearGradient id="paint47_linear_53_66" x1="367.514" y1="694.388" x2="820.701" y2="1017.46" gradientUnits="userSpaceOnUse">
<stop stop-color="#FF1CF7"/>
<stop offset="1" stop-color="#00F0FF"/>
</linearGradient>
<linearGradient id="paint48_linear_53_66" x1="361.607" y1="687.983" x2="790.693" y2="1029.11" gradientUnits="userSpaceOnUse">
<stop stop-color="#FF1CF7"/>
<stop offset="1" stop-color="#00F0FF"/>
</linearGradient>
<linearGradient id="paint49_linear_53_66" x1="356.004" y1="682.361" x2="760.36" y2="1039.92" gradientUnits="userSpaceOnUse">
<stop stop-color="#FF1CF7"/>
<stop offset="1" stop-color="#00F0FF"/>
</linearGradient>
<linearGradient id="paint50_linear_53_66" x1="350.654" y1="677.527" x2="729.753" y2="1049.87" gradientUnits="userSpaceOnUse">
<stop stop-color="#FF1CF7"/>
<stop offset="1" stop-color="#00F0FF"/>
</linearGradient>
<linearGradient id="paint51_linear_53_66" x1="345.508" y1="673.488" x2="698.928" y2="1058.98" gradientUnits="userSpaceOnUse">
<stop stop-color="#FF1CF7"/>
<stop offset="1" stop-color="#00F0FF"/>
</linearGradient>
<linearGradient id="paint52_linear_53_66" x1="340.516" y1="670.244" x2="667.936" y2="1067.23" gradientUnits="userSpaceOnUse">
<stop stop-color="#FF1CF7"/>
<stop offset="1" stop-color="#00F0FF"/>
</linearGradient>
<linearGradient id="paint53_linear_53_66" x1="335.631" y1="667.794" x2="636.831" y2="1074.62" gradientUnits="userSpaceOnUse">
<stop stop-color="#FF1CF7"/>
<stop offset="1" stop-color="#00F0FF"/>
</linearGradient>
<linearGradient id="paint54_linear_53_66" x1="330.803" y1="666.133" x2="605.663" y2="1081.17" gradientUnits="userSpaceOnUse">
<stop stop-color="#FF1CF7"/>
<stop offset="1" stop-color="#00F0FF"/>
</linearGradient>
<linearGradient id="paint55_linear_53_66" x1="325.985" y1="665.254" x2="574.485" y2="1086.87" gradientUnits="userSpaceOnUse">
<stop stop-color="#FF1CF7"/>
<stop offset="1" stop-color="#00F0FF"/>
</linearGradient>
<linearGradient id="paint56_linear_53_66" x1="321.131" y1="665.147" x2="543.346" y2="1091.75" gradientUnits="userSpaceOnUse">
<stop stop-color="#FF1CF7"/>
<stop offset="1" stop-color="#00F0FF"/>
</linearGradient>
<linearGradient id="paint57_linear_53_66" x1="316.194" y1="665.8" x2="512.295" y2="1095.81" gradientUnits="userSpaceOnUse">
<stop stop-color="#FF1CF7"/>
<stop offset="1" stop-color="#00F0FF"/>
</linearGradient>
<linearGradient id="paint58_linear_53_66" x1="311.131" y1="667.196" x2="481.38" y2="1099.07" gradientUnits="userSpaceOnUse">
<stop stop-color="#FF1CF7"/>
<stop offset="1" stop-color="#00F0FF"/>
</linearGradient>
<linearGradient id="paint59_linear_53_66" x1="305.9" y1="669.317" x2="450.647" y2="1101.55" gradientUnits="userSpaceOnUse">
<stop stop-color="#FF1CF7"/>
<stop offset="1" stop-color="#00F0FF"/>
</linearGradient>
<linearGradient id="paint60_linear_53_66" x1="300.457" y1="672.145" x2="420.14" y2="1103.27" gradientUnits="userSpaceOnUse">
<stop stop-color="#FF1CF7"/>
<stop offset="1" stop-color="#00F0FF"/>
</linearGradient>
<linearGradient id="paint61_linear_53_66" x1="294.765" y1="675.655" x2="389.901" y2="1104.26" gradientUnits="userSpaceOnUse">
<stop stop-color="#FF1CF7"/>
<stop offset="1" stop-color="#00F0FF"/>
</linearGradient>
<linearGradient id="paint62_linear_53_66" x1="288.785" y1="679.822" x2="359.972" y2="1104.54" gradientUnits="userSpaceOnUse">
<stop stop-color="#FF1CF7"/>
<stop offset="1" stop-color="#00F0FF"/>
</linearGradient>
<linearGradient id="paint63_linear_53_66" x1="282.482" y1="684.621" x2="330.391" y2="1104.14" gradientUnits="userSpaceOnUse">
<stop stop-color="#FF1CF7"/>
<stop offset="1" stop-color="#00F0FF"/>
</linearGradient>
<linearGradient id="paint64_linear_53_66" x1="275.821" y1="690.022" x2="301.194" y2="1103.09" gradientUnits="userSpaceOnUse">
<stop stop-color="#FF1CF7"/>
<stop offset="1" stop-color="#00F0FF"/>
</linearGradient>
<linearGradient id="paint65_linear_53_66" x1="268.771" y1="695.995" x2="272.415" y2="1101.43" gradientUnits="userSpaceOnUse">
<stop stop-color="#FF1CF7"/>
<stop offset="1" stop-color="#00F0FF"/>
</linearGradient>
<linearGradient id="paint66_linear_53_66" x1="261.302" y1="702.507" x2="244.086" y2="1099.2" gradientUnits="userSpaceOnUse">
<stop stop-color="#FF1CF7"/>
<stop offset="1" stop-color="#00F0FF"/>
</linearGradient>
<linearGradient id="paint67_linear_53_66" x1="253.388" y1="709.525" x2="216.237" y2="1096.41" gradientUnits="userSpaceOnUse">
<stop stop-color="#FF1CF7"/>
<stop offset="1" stop-color="#00F0FF"/>
</linearGradient>
<linearGradient id="paint68_linear_53_66" x1="245.003" y1="717.013" x2="188.893" y2="1093.12" gradientUnits="userSpaceOnUse">
<stop stop-color="#FF1CF7"/>
<stop offset="1" stop-color="#00F0FF"/>
</linearGradient>
</defs>
</svg>
